<?xml version="1.0" encoding="utf-8"?>
<!-- Generator: Adobe Illustrator 27.5.0, SVG Export Plug-In . SVG Version: 6.00 Build 0)  -->
<svg version="1.1" xmlns="http://www.w3.org/2000/svg" xmlns:xlink="http://www.w3.org/1999/xlink" x="0px" y="0px"
	 viewBox="0 0 750 500" style="enable-background:new 0 0 750 500;" xml:space="preserve">
<g id="Device_00000125569135658729649270000009484828729510504375_">
	<g id="Devcie_00000001641277803417480960000004817224291856069003_">
		<g>
			<path style="fill:#F55571;" d="M657.788,363.426H195.507c-4.337,0-7.852-3.516-7.852-7.853V67.98
				c0-4.337,3.516-7.852,7.852-7.852h462.281c4.337,0,7.852,3.516,7.852,7.852v287.594
				C665.64,359.91,662.125,363.426,657.788,363.426z"/>
			<circle style="fill:#303030;" cx="426.647" cy="69.457" r="4.042"/>
			
				<path style="fill:#FFFFFF;stroke:#303030;stroke-width:1.5;stroke-linecap:round;stroke-linejoin:round;stroke-miterlimit:10;" d="
				M207.181,341.443V82.109c0-1.356,1.099-2.455,2.455-2.455h434.021c1.356,0,2.455,1.099,2.455,2.455v259.333
				c0,1.356-1.099,2.455-2.455,2.455H209.637C208.281,343.898,207.181,342.799,207.181,341.443z"/>
		</g>
		<g>
			
				<path style="fill:#303030;stroke:#303030;stroke-width:1.5;stroke-linecap:round;stroke-linejoin:round;stroke-miterlimit:10;" d="
				M681.036,391.594H172.258c-8.577,0-15.531-6.953-15.531-15.531v-7.042c0-3.096,2.51-5.606,5.606-5.606h528.628
				c3.096,0,5.606,2.51,5.606,5.606v7.042C696.567,384.64,689.614,391.594,681.036,391.594z"/>
			
				<path style="fill:#303030;stroke:#FFFFFF;stroke-width:1.5;stroke-linecap:round;stroke-linejoin:round;stroke-miterlimit:10;" d="
				M465.476,363.266v6.984c0,3.98-2.687,7.207-6.002,7.207h-65.653c-3.315,0-6.002-3.227-6.002-7.207v-6.984"/>
			
				<line style="fill:#303030;stroke:#FFFFFF;stroke-width:1.5;stroke-linecap:round;stroke-linejoin:round;stroke-miterlimit:10;" x1="592.166" y1="375.004" x2="697.321" y2="375.004"/>
			
				<line style="fill:#303030;stroke:#FFFFFF;stroke-width:1.5;stroke-linecap:round;stroke-linejoin:round;stroke-miterlimit:10;" x1="261.129" y1="375.004" x2="155.973" y2="375.004"/>
		</g>
	</g>
</g>
<g id="Gears">
	<path id="Gear_00000107575428587526908780000007145294097938502280_" style="fill:#FF95FB;" d="M509.126,167.025l-5.765-20.841
		c-0.681-2.462-3.176-4.031-5.748-3.564l-16.704,3.148c-2.622-4.332-5.681-8.296-9.213-11.835l7.136-15.376
		c1.066-2.356,0.193-5.159-2.077-6.445l-18.804-10.655c-2.271-1.287-5.123-0.596-6.596,1.53l-9.535,13.978
		c-4.84-1.165-9.826-1.798-14.934-1.81l-5.825-15.915c-0.921-2.445-3.549-3.779-6.057-3.086l-20.795,5.752
		c-2.509,0.694-4.076,3.189-3.565,5.747l3.135,16.659c-4.377,2.635-8.329,5.741-11.835,9.214l-15.409-7.078
		c-2.357-1.067-5.159-0.193-6.445,2.077l-10.655,18.803c-1.242,2.258-0.596,5.124,1.53,6.597l14.024,9.523
		c-1.211,4.852-1.799,9.824-1.822,14.888l-15.948,5.884c-2.4,0.909-3.734,3.536-3.053,5.999l5.765,20.841
		c0.694,2.508,3.189,4.076,5.702,3.577l16.704-3.148c2.621,4.332,5.695,8.342,9.214,11.836l-7.124,15.421
		c-1.067,2.357-0.148,5.147,2.078,6.446l18.791,10.609c2.27,1.287,5.136,0.642,6.597-1.53l9.535-13.977
		c4.852,1.211,9.826,1.799,14.934,1.809l5.871,15.902c0.877,2.457,3.503,3.792,6.012,3.098l20.795-5.752
		c2.508-0.694,4.077-3.189,3.611-5.76l-3.181-16.646c4.376-2.634,8.341-5.694,11.881-9.227l15.363,7.09
		c2.369,1.113,5.158,0.194,6.445-2.077l10.668-18.758c1.287-2.27,0.595-5.123-1.53-6.597l-14.036-9.568
		c1.223-4.806,1.799-9.825,1.821-14.888l15.948-5.884C508.485,172.16,509.819,169.533,509.126,167.025z M463.52,168.447
		c5.626,20.338-6.303,41.459-26.687,47.097c-20.384,5.639-41.472-6.349-47.098-26.687c-5.639-20.385,6.303-41.459,26.688-47.097
		C436.807,136.121,457.882,148.062,463.52,168.447z"/>
	
		<path id="Gear_00000137093658828112918720000015946474857277042060_" style="fill:#FFFFFF;stroke:#FF95FB;stroke-width:2;stroke-linecap:round;stroke-linejoin:round;stroke-miterlimit:10;" d="
		M361.586,247.021l-5.568-13.415c-0.658-1.585-2.451-2.424-4.127-1.9l-10.875,3.481c-2.106-2.671-4.474-5.06-7.122-7.127
		l3.484-10.841c0.516-1.659-0.298-3.455-1.918-4.124l-13.417-5.546c-1.62-0.67-3.465,0.027-4.271,1.566l-5.199,10.107
		c-3.323-0.376-6.699-0.385-10.105,0.03l-5.201-10.126c-0.816-1.553-2.679-2.225-4.293-1.555l-13.386,5.556
		c-1.615,0.67-2.453,2.463-1.901,4.126l3.469,10.845c-2.699,2.119-5.077,4.516-7.126,7.122l-10.858-3.442
		c-1.659-0.516-3.455,0.298-4.125,1.918l-5.546,13.417c-0.641,1.608,0.027,3.465,1.566,4.271l10.137,5.187
		c-0.406,3.334-0.386,6.698,0.018,10.075l-10.144,5.243c-1.524,0.805-2.196,2.667-1.538,4.251l5.568,13.415
		c0.67,1.614,2.463,2.453,4.097,1.912l10.875-3.482c2.106,2.671,4.487,5.089,7.122,7.127l-3.472,10.87
		c-0.516,1.659,0.328,3.443,1.918,4.125l13.404,5.516c1.62,0.67,3.477,0.003,4.271-1.566l5.199-10.107
		c3.334,0.406,6.699,0.386,10.105-0.03l5.23,10.114c0.788,1.565,2.649,2.238,4.264,1.568l13.386-5.556
		c1.614-0.67,2.453-2.463,1.93-4.139l-3.499-10.833c2.699-2.118,5.089-4.487,7.156-7.134l10.828,3.454
		c1.671,0.546,3.455-0.298,4.124-1.918l5.558-13.387c0.67-1.62-0.027-3.464-1.566-4.271l-10.149-5.216
		c0.418-3.305,0.385-6.698-0.019-10.075l10.144-5.243C361.583,250.498,362.256,248.635,361.586,247.021z M331.302,251.745
		c5.434,13.092-0.769,28.158-13.891,33.605c-13.121,5.446-28.171-0.799-33.605-13.891c-5.446-13.122,0.769-28.158,13.891-33.605
		C310.819,232.408,325.856,238.623,331.302,251.745z"/>
</g>
<g id="Alarm_Icon_00000091736334154523332680000005922384733681203117_">
	<g id="Alarm_Icon">
		
			<path style="fill:#FFFFFF;stroke:#303030;stroke-width:1.5;stroke-linecap:round;stroke-linejoin:round;stroke-miterlimit:10;" d="
			M505.384,45.153l-132.683,229.82c-12.238,21.199,3.06,47.697,27.538,47.697h265.366c24.478,0,39.777-26.498,27.538-47.697
			L560.46,45.153C548.221,23.954,517.623,23.954,505.384,45.153z"/>
		
			<path style="fill:#00826F;stroke:#303030;stroke-width:1.5;stroke-linecap:round;stroke-linejoin:round;stroke-miterlimit:10;" d="
			M400.238,301.638c-5.41,0-8.162-3.371-9.321-5.381c-1.165-2.016-2.708-6.079-0.003-10.768L523.599,55.668
			c2.705-4.686,7.003-5.384,9.324-5.384c2.321,0,6.619,0.698,9.327,5.384l132.679,229.821c2.705,4.686,1.162,8.755,0,10.765
			c-1.159,2.01-3.917,5.384-9.324,5.384H400.238z"/>
		<path style="fill:#FFFFFF;" d="M533.012,265.1c-5.193,0-9.511-1.75-12.954-5.257c-3.448-3.501-5.167-7.851-5.167-13.049
			c0-5.194,1.719-9.543,5.167-13.049c3.443-3.501,7.761-5.251,12.954-5.251c5.193,0,9.485,1.75,12.87,5.251
			c3.379,3.506,5.072,7.856,5.072,13.049c0,5.198-1.692,9.548-5.072,13.049C542.497,263.349,538.205,265.1,533.012,265.1z
			 M520.465,202.417l-4.667-71.433h34.434l-4.667,71.433c-0.433,6.613-5.922,11.756-12.549,11.756l0,0
			C526.387,214.173,520.897,209.03,520.465,202.417z"/>
	</g>
</g>
<g id="Screwdriver_00000034054388110457021030000013686243044127793087_">
	<g id="Screwdriver">
		<path style="fill:#FF95FB;" d="M533.425,446.008h-163.31c-1.494,0-2.969-0.339-4.313-0.993l-8.831-4.292
			c-1.145-0.556-1.145-2.187,0-2.743l8.831-4.292c1.344-0.653,2.819-0.993,4.313-0.993h163.31V446.008z"/>
		
			<line style="fill:none;stroke:#303030;stroke-width:1.5;stroke-linecap:round;stroke-linejoin:round;stroke-miterlimit:10;" x1="358.415" y1="439.352" x2="370.193" y2="439.352"/>
		<g>
			<path style="fill:#00826F;" d="M701.488,418.531H583.455c-1.189,0-2.328,0.5-3.128,1.38c-10.205,11.22-20.41,11.22-30.615,0
				c-0.8-0.879-1.939-1.38-3.128-1.38h-8.908c-2.347,0-4.25,1.903-4.25,4.25v33.141c0,2.347,1.903,4.25,4.25,4.25l8.908,0
				c1.189,0,2.328-0.5,3.128-1.379c10.205-11.22,20.41-11.22,30.615,0c0.8,0.879,1.939,1.379,3.128,1.379h118.034
				c11.499,0,20.82-9.322,20.82-20.82v0C722.309,427.853,712.987,418.531,701.488,418.531z"/>
			
				<line style="fill:none;stroke:#303030;stroke-width:1.5;stroke-linecap:round;stroke-linejoin:round;stroke-miterlimit:10;" x1="548.504" y1="454.327" x2="548.504" y2="439.352"/>
			
				<line style="fill:none;stroke:#303030;stroke-width:1.5;stroke-linecap:round;stroke-linejoin:round;stroke-miterlimit:10;" x1="581.534" y1="454.327" x2="581.534" y2="424.376"/>
			<g>
				
					<path style="fill:#00826F;stroke:#303030;stroke-width:1.5;stroke-linecap:round;stroke-linejoin:round;stroke-miterlimit:10;" d="
					M545.762,435.331h-9.595c-1.514,0-2.742-1.228-2.742-2.742v-1.522c0-1.514,1.228-2.742,2.742-2.742h9.595
					c1.514,0,2.742,1.228,2.742,2.742v1.522C548.504,434.104,547.277,435.331,545.762,435.331z"/>
				
					<path style="fill:#00826F;stroke:#303030;stroke-width:1.5;stroke-linecap:round;stroke-linejoin:round;stroke-miterlimit:10;" d="
					M545.762,443.372h-9.595c-1.514,0-2.742,1.228-2.742,2.742v1.521c0,1.514,1.228,2.742,2.742,2.742h9.595
					c1.514,0,2.742-1.228,2.742-2.742v-1.521C548.504,444.6,547.277,443.372,545.762,443.372z"/>
			</g>
			<g>
				
					<path style="fill:#00826F;stroke:#303030;stroke-width:1.5;stroke-linecap:round;stroke-linejoin:round;stroke-miterlimit:10;" d="
					M705.441,435.331H584.276c-1.514,0-2.742-1.228-2.742-2.742v-1.522c0-1.514,1.228-2.742,2.742-2.742h121.165
					c1.514,0,2.742,1.228,2.742,2.742v1.522C708.183,434.104,706.956,435.331,705.441,435.331z"/>
				
					<path style="fill:#00826F;stroke:#303030;stroke-width:1.5;stroke-linecap:round;stroke-linejoin:round;stroke-miterlimit:10;" d="
					M705.441,443.372H584.276c-1.514,0-2.742,1.228-2.742,2.742v1.521c0,1.514,1.228,2.742,2.742,2.742h121.165
					c1.514,0,2.742-1.228,2.742-2.742v-1.521C708.183,444.6,706.956,443.372,705.441,443.372z"/>
			</g>
		</g>
	</g>
</g>
<g id="Character">
	<g id="Character_00000096045302867672035850000005740744420460298131_">
		<g id="Character_00000163764055399849499610000017103871188731074485_">
			<g id="Arm_00000049904907077124196900000000703733505343924102_">
				<path style="fill:#FFCCCC;" d="M96.915,152.615c-10.557,1.666-18.423,4.325-30.304,23.471
					c-11.881,19.146-21.02,33.095-23.304,39.66c-2.285,6.564-3.859,13.402,1.841,19.967c5.699,6.564,14.838,7.903,21.692,7.903
					c6.854,0,30.075,0,30.075,0V152.615z"/>
				<path style="fill:#303030;" d="M96.915,150.959c-14.165,4.389-18.536,6.011-30.842,22.255
					c-9.029,11.918-15.988,26.642-15.988,26.642c2.019,12.733,19.728,26.963,29.733,23.303l20.228-31.092L96.915,150.959z"/>
			</g>
			<g id="Wrench_00000042738996388260250460000009613474727186934171_">
				<path style="fill:#303030;" d="M325.031,133.629c-0.63,0.001-5.634,0.003-7.11,0c-0.633-0.001-1.28,0.233-1.816,0.769
					l-14.072,14.072h-14.347l-15.178-15.178l0-21.466l14.072-14.071c1.67-1.671,0.414-4.426-1.794-4.432
					c-0.153-0.001-6.365-0.002-7.138,0c-0.146,0-0.297,0.013-0.451,0.039l-16.287,2.735c-1.909,0.32-3.646,1.295-4.914,2.757
					l-20.514,23.645c-1.749,2.016-2.426,4.747-1.823,7.346l5.382,23.177l-72.422,72.422l-17.4-4.041
					c-0.761-0.177-1.531-0.222-2.292-0.181l-0.085-0.034h-6.643l-0.003,0.003c-1.979,0.005-3.916,0.711-5.442,2.036L111.11,243.74
					c-1.462,1.268-2.437,3.006-2.757,4.914l-2.735,16.287c-0.28,1.665,0.981,2.908,2.381,3.019l-0.006,0.03h7.234l0.007-0.017
					c0.658,0.022,1.338-0.209,1.896-0.768l14.072-14.072h14.347l15.178,15.179v21.466l-14.072,14.072
					c-1.696,1.696-0.372,4.505,1.899,4.424h6.912l0.006-0.009c0.184,0.008,0.369,0.01,0.566-0.023l16.287-2.736
					c1.908-0.32,3.646-1.295,4.914-2.757l20.514-23.645c1.749-2.016,2.426-4.747,1.822-7.346l-5.382-23.176l72.422-72.422
					l17.399,4.04c0.674,0.157,1.354,0.199,2.03,0.185l0.023,0.028h6.905l0.001-0.003c2.001,0.01,3.963-0.694,5.505-2.033
					l23.645-20.514c1.462-1.268,2.437-3.006,2.757-4.914l2.735-16.287C327.91,134.916,326.51,133.628,325.031,133.629z"/>
				<g id="Wrench">
					<path style="fill:#FFFFFF;" d="M155.575,307.532c-0.883,0-1.445-0.595-1.675-1.151c-0.292-0.708-0.142-1.455,0.404-2.001
						l14.072-14.072c0.141-0.141,0.22-0.332,0.22-0.53v-21.465c0-0.199-0.079-0.39-0.22-0.53l-15.178-15.179
						c-0.141-0.141-0.332-0.22-0.53-0.22h-21.466c-0.199,0-0.39,0.079-0.53,0.22l-14.072,14.072
						c-0.454,0.454-0.947,0.549-1.28,0.549c-0.551,0-1.095-0.253-1.455-0.678c-0.242-0.287-0.506-0.776-0.388-1.481l2.735-16.287
						c0.291-1.732,1.182-3.321,2.509-4.472l23.645-20.514c1.379-1.196,3.144-1.855,4.97-1.855c0.576,0,1.153,0.066,1.715,0.196
						l23.176,5.382c0.056,0.013,0.113,0.02,0.169,0.02c0.197,0,0.388-0.078,0.53-0.22l73.764-73.764
						c0.183-0.183,0.259-0.448,0.2-0.7l-5.382-23.177c-0.547-2.357,0.073-4.856,1.659-6.685l20.514-23.645
						c1.151-1.327,2.739-2.218,4.472-2.509l16.287-2.735c0.116-0.02,0.228-0.029,0.338-0.029c0.885,0,1.446,0.595,1.677,1.151
						c0.293,0.707,0.142,1.455-0.404,2l-14.071,14.072c-0.141,0.141-0.22,0.332-0.22,0.53v21.465c0,0.199,0.079,0.39,0.22,0.53
						l15.178,15.179c0.141,0.141,0.331,0.22,0.53,0.22h21.466c0.199,0,0.39-0.079,0.53-0.22l14.071-14.072
						c0.454-0.454,0.947-0.549,1.28-0.549c0.552,0,1.096,0.254,1.455,0.679c0.242,0.286,0.507,0.775,0.389,1.48l-2.735,16.287
						c-0.291,1.732-1.183,3.32-2.51,4.472l-23.645,20.514c-1.38,1.196-3.145,1.855-4.971,1.855c-0.575,0-1.152-0.066-1.714-0.196
						l-23.177-5.382c-0.057-0.013-0.113-0.02-0.17-0.02c-0.196,0-0.388,0.078-0.53,0.22l-73.764,73.764
						c-0.183,0.183-0.259,0.448-0.2,0.7l5.382,23.177c0.547,2.358-0.073,4.857-1.659,6.685l-20.514,23.645
						c-1.151,1.327-2.739,2.218-4.473,2.509l-16.287,2.735C155.797,307.522,155.685,307.532,155.575,307.532
						C155.575,307.532,155.575,307.532,155.575,307.532z"/>
					<path style="fill:#303030;" d="M284.778,94.822c0.514,0,0.845,0.355,0.982,0.688c0.103,0.249,0.209,0.734-0.241,1.184
						l-14.071,14.072c-0.281,0.281-0.439,0.663-0.439,1.061l0,21.466c0,0.398,0.158,0.779,0.439,1.061l15.178,15.178
						c0.281,0.281,0.663,0.439,1.061,0.439h21.466c0.398,0,0.779-0.158,1.061-0.439l14.072-14.072c0.219-0.219,0.471-0.33,0.75-0.33
						c0.329,0,0.667,0.158,0.883,0.413c0.203,0.24,0.277,0.534,0.221,0.872l-2.735,16.287c-0.262,1.561-1.065,2.992-2.261,4.03
						l-23.645,20.514c-1.243,1.078-2.833,1.672-4.478,1.672c-0.519,0-1.039-0.06-1.546-0.177l-23.177-5.382
						c-0.113-0.026-0.226-0.039-0.339-0.039c-0.393,0-0.776,0.155-1.061,0.439l-73.764,73.764c-0.366,0.366-0.518,0.896-0.4,1.4
						l5.382,23.177c0.493,2.124-0.066,4.376-1.495,6.024l-20.514,23.645c-1.037,1.196-2.468,1.999-4.03,2.261l-16.287,2.736
						c-0.073,0.012-0.145,0.018-0.214,0.018c-0.514,0-0.845-0.355-0.983-0.688c-0.103-0.249-0.209-0.733,0.241-1.184l14.072-14.072
						c0.281-0.281,0.439-0.663,0.439-1.061v-21.466c0-0.398-0.158-0.779-0.439-1.061l-15.178-15.178
						c-0.281-0.281-0.663-0.439-1.061-0.439l-21.466,0c-0.398,0-0.779,0.158-1.061,0.439l-14.071,14.072
						c-0.219,0.219-0.471,0.33-0.75,0.33c-0.329,0-0.667-0.158-0.882-0.413c-0.203-0.24-0.278-0.534-0.221-0.872l2.735-16.287
						c0.262-1.561,1.065-2.992,2.261-4.03l23.645-20.514c1.243-1.078,2.833-1.672,4.478-1.672c0.519,0,1.039,0.06,1.546,0.177
						l23.177,5.382c0.113,0.026,0.226,0.039,0.339,0.039c0.393,0,0.776-0.155,1.061-0.439l73.764-73.764
						c0.366-0.366,0.518-0.895,0.4-1.4l-5.382-23.177c-0.493-2.124,0.066-4.376,1.495-6.024l20.514-23.645
						c1.038-1.196,2.469-1.999,4.03-2.261l16.287-2.735C284.637,94.828,284.709,94.822,284.778,94.822 M284.778,93.322
						c-0.15,0-0.304,0.013-0.462,0.039l-16.287,2.735c-1.909,0.32-3.646,1.295-4.914,2.757l-20.514,23.645
						c-1.749,2.016-2.426,4.747-1.823,7.346l5.382,23.177l-73.764,73.764l-23.177-5.382c-0.624-0.145-1.257-0.216-1.885-0.216
						c-1.986,0-3.93,0.71-5.461,2.039l-23.645,20.514c-1.462,1.268-2.437,3.006-2.757,4.915l-2.735,16.287
						c-0.293,1.745,1.105,3.033,2.582,3.033c0.631,0,1.276-0.235,1.811-0.769l14.072-14.072l21.466,0l15.178,15.178v21.466
						l-14.072,14.072c-1.672,1.672-0.411,4.432,1.802,4.432c0.15,0,0.304-0.013,0.462-0.039l16.287-2.735
						c1.909-0.32,3.646-1.295,4.914-2.757l20.514-23.645c1.749-2.016,2.426-4.747,1.823-7.346l-5.382-23.177l73.764-73.764
						l23.177,5.382c0.625,0.145,1.257,0.216,1.885,0.216c1.986,0,3.93-0.71,5.461-2.039l23.645-20.514
						c1.462-1.268,2.437-3.006,2.757-4.914l2.735-16.287c0.293-1.745-1.105-3.033-2.582-3.033c-0.631,0-1.276,0.235-1.811,0.769
						l-14.072,14.072h-21.466l-15.178-15.178l0-21.466l14.072-14.071C288.252,96.082,286.991,93.322,284.778,93.322L284.778,93.322z
						"/>
				</g>
			</g>
			<g id="Legs_00000001630846688890305200000002044224595560281012_">
				<g>
					<g id="Leg_00000014633496145978357060000009953888861188866491_">
						<path style="fill:#FFCCCC;" d="M212.41,287.769l-50.178,18.123c-15.13,14.282-15.406,27.64-21.043,76.814
							c-1.988,17.339-4.352,31.493-4.352,31.493l24.799,17.04c0,0,5.144-7.403,11.822-21.581c4.5-9.556,17.126-36.869,26.294-63.281
							C210.097,316.57,215.321,300.2,212.41,287.769z"/>
						<g>
							<path style="fill:#00826F;" d="M138.437,391.025c6.659-5.967,17.792,0.051,23.856,8.073
								c4.152,5.494,6.741,8.626,11.165,10.561l3.967-8.492c4.42,1.482,4.604,5.104,7.339,9.866
								c5.11,8.894,10.7,16.507,27.099,21.915c13.637,4.497,15.026,8.85,14.995,14.823c0,0-11.301,3.118-33.915,1.555
								c-13.737-0.95-29.819-10.372-38.588-16.212c-12.859-8.565-29.184-10.432-30.952-3.625c2.224-9.146,5.551-14.274,7.698-20.916
								C134.021,399.539,134.742,394.336,138.437,391.025z"/>
							
								<path style="fill:none;stroke:#303030;stroke-width:1.5;stroke-linecap:round;stroke-linejoin:round;stroke-miterlimit:10;" d="
								M123.403,429.487c2.224-9.146,5.551-14.274,7.698-20.916c2.92-9.032,3.641-14.236,7.336-17.547
								c0.8-0.731,1.727-1.322,2.808-1.743"/>
							
								<path style="fill:#303030;stroke:#303030;stroke-width:1.5;stroke-linecap:round;stroke-linejoin:round;stroke-miterlimit:10;" d="
								M197.28,458.475c-20.317,0-16.501,0-27.804,0c-11.303,0-20.361-4.421-30.046-9.152c-15.871-7.754-18.268-13.235-17.05-16.901
								c5.377-3.268,14.377,1.484,30.831,9.8C169.665,450.538,178.536,457.256,197.28,458.475z"/>
							
								<path style="fill:#FFFFFF;stroke:#303030;stroke-width:1.5;stroke-linecap:round;stroke-linejoin:round;stroke-miterlimit:10;" d="
								M123.894,428.37c2.646-5.69,17.602-3.822,30.462,4.743c8.769,5.841,24.851,15.263,38.588,16.212
								c22.614,1.563,33.915-1.555,33.915-1.555c1.32,0,1.282,1.044,1.282,4.278s0,4.673-5.254,5.587
								c-4.143,0.72-17.945,1.33-30.334,0.641c-12.889-0.717-22.242-4.916-31.803-10.465c-12.855-7.462-17.832-10.72-23.348-12.558
								c-6.62-2.207-12.809-0.953-13.997-0.279C122.214,435.647,121.148,434.274,123.894,428.37z"/>
						</g>
					</g>
					<g>
						<path style="fill:#00826F;" d="M217.286,297.762c-11.812,35.629-31.609,87.995-31.609,87.995l-45.478-11.476
							c2.94-29.064,6.837-65.592,13.863-76.519H217.286z"/>
					</g>
				</g>
				<g>
					<g id="Leg_00000032616068065498329410000007120822887280923806_">
						<path style="fill:#FFCCCC;" d="M162.73,246.86l0.748,26.727c0,0,34.543-21.226,70.377-25.589
							c29.18-3.553,43.79,20.967,46.221,52.553c0.98,12.73,3.73,78.594,5.615,108.716c1.76,28.12-17.889,16.269-17.889,16.269
							s-17.342-2.166-21.478-19.121c-9.278-38.034-19.119-59.819-19.592-91.504c0,0-57.262,21.449-105.383,21.449
							c-23.541,0-48.204-3.126-56.671-14.408c-10.695-14.253-4.805-46.355,8.217-75.091H162.73z"/>
						<g>
							<path style="fill:#00826F;" d="M241.574,404.862c6.684-6.529,16.251-1.266,26.596,5.36
								c10.345,6.626,16.243,2.687,17.633,0.882l-0.532-8.873c5.667,0.541,7.349,5.18,11.704,9.681
								c8.269,8.549,11.503,12.537,29.694,18.31c15.39,4.884,17.676,9.547,18.246,16.083c0,0-2.3,7.13-36.753,2.467
								c-15.118-2.046-36.911,1.16-48.485,0.413c-15.033-0.971-17.309-2.071-23.278-3.594c-0.954-7.241,0.055-12.035,1.734-19.303
								C240.414,416.404,237.864,408.485,241.574,404.862z"/>
							
								<path style="fill:none;stroke:#303030;stroke-width:1.5;stroke-linecap:round;stroke-linejoin:round;stroke-miterlimit:10;" d="
								M236.398,445.591c-0.522-11.474,0.854-15.399,2.532-22.668c2.282-9.884-0.788-12.246,2.643-18.061
								c1.16-1.967,4.354-2.987,6.406-2.987"/>
							
								<path style="fill:#FFFFFF;stroke:#303030;stroke-width:1.5;stroke-linecap:round;stroke-linejoin:round;stroke-miterlimit:10;" d="
								M236.398,445.591c0,0,5.514,2.338,23.278,3.594c11.576,0.818,37.961-1.854,53.085,0c29.798,3.652,32.152-2.88,32.152-2.88
								c1.444,0,1.144,2.455,1.471,5.994c0.327,3.539-0.947,5.211-6.158,6.279c-4.409,0.904-9.569,1.395-28.591,0.186
								c-20.491-1.303-33.335,0.694-51.571,0.643c-8.604-0.024-15.36-0.95-22.086-3.223
								C236.521,455.692,235.355,450.354,236.398,445.591z"/>
						</g>
					</g>
					<g>
						<g>
							<path style="fill:#00826F;" d="M284.301,319.333c2.606,28.149,4.277,53.052,4.934,63.465c0.177,2.81-2.055,5.176-4.87,5.176
								h-44.282c-6.195-17.843-14.835-44.268-16.928-68.677L284.301,319.333z"/>
						</g>
						<path style="fill:#00826F;" d="M66.541,248.324c-8.628,36.67-14.381,51.582-9.683,67.764
							c4.045,13.933,17.017,24.478,35.999,24.478c8.105,0,47.341,4.449,80.602-3.453c13.53-3.214,34.032-11.216,49.694-17.816
							l61.146,0.036c-1.901-18.814-2.791-30.566-6.211-42.38c-4.387-15.153-18.672-36.074-41.775-31.124
							c-23.22,4.976-70.427,20.351-70.427,20.351v-17.857H66.541z"/>
						<g>
							
								<path style="fill:none;stroke:#303030;stroke-width:1.5;stroke-linecap:round;stroke-linejoin:round;stroke-miterlimit:10;" d="
								M249.648,307.035l-34.036,15.753c-19.135,8.68-43.563,18.992-93.907,18.992"/>
							
								<path style="fill:none;stroke:#303030;stroke-width:1.5;stroke-linecap:round;stroke-linejoin:round;stroke-miterlimit:10;" d="
								M154.006,248.324c0,32.803-2.266,51.387,13.552,52.25c15.818,0.863,58.625-21.146,67.914-23.62
								c10.164-2.708,16.333-1.488,20.88,16.687c5.292,21.151,19.349,93.327,19.349,93.327"/>
							<path style="fill:#303030;" d="M288.876,377.259H236.45l3.828,11.473h42.687c3.573,0,6.409-3.007,6.199-6.574
								L288.876,377.259z"/>
							<polygon style="fill:#303030;" points="189.709,375.341 141.191,363.012 139.934,374.53 185.686,386.156 							"/>
							
								<polyline style="fill:none;stroke:#303030;stroke-width:1.5;stroke-linecap:round;stroke-linejoin:round;stroke-miterlimit:10;" points="
								165.888,266.181 153.866,266.457 93.787,276.954 65.424,258.118 							"/>
							
								<path style="fill:none;stroke:#303030;stroke-width:1.5;stroke-linecap:round;stroke-linejoin:round;stroke-miterlimit:10;" d="
								M128.004,326.263h-10.472c-6.735,0-12.196-5.46-12.196-12.196V291.4h34.863v22.667
								C140.199,320.803,134.739,326.263,128.004,326.263z"/>
							
								<path style="fill:none;stroke:#303030;stroke-width:1.5;stroke-linecap:round;stroke-linejoin:round;stroke-miterlimit:10;" d="
								M56.634,290.267h21.745v17.432c0,9.627-7.804,17.431-17.431,17.431l0,0"/>
							
								<path style="fill:none;stroke:#303030;stroke-width:1.5;stroke-linecap:round;stroke-linejoin:round;stroke-miterlimit:10;" d="
								M93.787,276.954c-5.104,26.634-5.345,53.353,8.393,63.612"/>
						</g>
					</g>
				</g>
			</g>
			<g id="Head_00000115479081026238421360000008039293605639411635_">
				<path style="fill:#303030;" d="M172.664,101.546c-5.502,17.547-34.89,34.826-53.016,29.143
					c-3.856-8.041-10.951-22.46-7.343-39.201c3.172-14.722,13.024-21.404,39.205-21.459
					C177.69,69.974,189.29,85.673,172.664,101.546z"/>
				<path style="fill:#FFCCCC;" d="M111.004,152.274l8.644-21.586c3.555,1.542,11.524,1.203,16.268-2.262
					c4.964-3.625,4.445-7.577,4.445-7.577s-2.005-6.614-2.557-9.765c0,0,0.949-1.188,2.669-3.233
					c2.828,2.868,2.376,5.34,3.906,6.148c2.058,1.087,5.714-4.702,2.428-13.224c10.17-2.246,16.51-12.221,13.793-20.051
					c6.513,1.305,10.266,4.835,13.898,12.277c0,0,2.67,5.335,1.9,12.872c-0.518,5.131-0.899,5.761-1.736,9.713
					c-0.694,3.247-1.39,7.644-1.789,12.205c-0.528,6.047-0.786,9.835-4.145,13.118c-3.359,3.283-8.924,3.255-12.302,3.105
					c-3.378-0.149-5.992-0.036-10.569-1.569l-3.109,15.113L111.004,152.274z"/>
				<path style="fill:none;stroke:#303030;stroke-width:1.5;stroke-linecap:round;stroke-linejoin:round;stroke-miterlimit:10;" d="
					M158.837,79.244c3.433,1.612,4.586,2.952,5.743,5.44s0.969,6.285,0.212,8.638"/>
				<g>
					
						<path style="fill:#FFCCCC;stroke:#303030;stroke-width:1.5;stroke-linecap:round;stroke-linejoin:round;stroke-miterlimit:10;" d="
						M141.533,108.938c-1.712-2.582-5.388-4.565-9.867-3.374c-4.045,1.076-6.528,4.81-6.315,8.723
						c0.21,3.868,2.929,6.808,6.166,8.193c3.955,1.691,7.202,0.583,9.669-0.932"/>
					<g>
						
							<path style="fill:none;stroke:#303030;stroke-width:1.5;stroke-linecap:round;stroke-linejoin:round;stroke-miterlimit:10;" d="
							M131.228,113.968c0.737-1.794,2.271-2.793,3.924-2.554c1.653,0.239,3.37,1.707,4.391,3.755"/>
						
							<path style="fill:none;stroke:#303030;stroke-width:1.5;stroke-linecap:round;stroke-linejoin:round;stroke-miterlimit:10;" d="
							M134.683,115.474c0.279-0.826,0.821-1.397,1.434-1.754c0.613-0.357,1.332-0.472,2.012-0.517"/>
					</g>
				</g>
				<g>
					<g>
						<g>
							<path style="fill:#FFFFFF;" d="M158.8,109.248c0,0,1.644-1.891,3.917-3.096c1.731-0.918,4.271-0.84,5.208-0.243
								c0.506,0.588,0.796,1.628,0.255,3.854C166.564,111.803,162.439,111.128,158.8,109.248z"/>
						</g>
						<path style="fill:#303030;" d="M168.126,108.479c-0.192,1.613-1.443,2.755-2.794,2.549c-1.35-0.205-2.289-1.68-2.097-3.293
							c0.192-1.613,1.443-2.754,2.794-2.549C167.38,105.392,168.319,106.866,168.126,108.479z"/>
						<polygon style="fill:#FFFFFF;" points="163.094,106.284 165.784,108.052 162.217,108.205 						"/>
						
							<path style="fill:none;stroke:#303030;stroke-width:1.5;stroke-linecap:round;stroke-linejoin:round;stroke-miterlimit:10;" d="
							M167.926,105.909c-3.269-0.922-6.516,0.393-9.125,3.339"/>
					</g>
					
						<path style="fill:#FFCCCC;stroke:#303030;stroke-width:1.5;stroke-linecap:round;stroke-linejoin:round;stroke-miterlimit:10;" d="
						M173.298,123.81c3.193-0.348,5.502-0.882,5.723-4.541c0.117-1.942-1.452-9.218-4.783-15.007"/>
					
						<path style="fill:none;stroke:#303030;stroke-width:1.5;stroke-linecap:round;stroke-linejoin:round;stroke-miterlimit:10;" d="
						M169.597,99.36c-4-1.546-7.498,0.683-11.907,3.637"/>
					
						<path style="fill:none;stroke:#303030;stroke-width:1.5;stroke-linecap:round;stroke-linejoin:round;stroke-miterlimit:10;" d="
						M162.213,125.626c2.927,2.816,6.064,3.047,7.469,3.017"/>
				</g>
				<path style="fill:#303030;" d="M146.554,138.639l-0.698,3.805c6.518,2.183,11.859,2.623,18.181,0.986
					C155.404,143.489,147.913,139.536,146.554,138.639z"/>
			</g>
			<g id="Chest_00000119079537774819186930000006736088161619689104_">
				<path id="Chest_00000070840062084712533900000004711848178377626528_" style="fill:#303030;" d="M96.915,150.959
					c30.525-7.71,51.249-0.95,68.412,4.14c0,0,15.501,22.012,6.372,44.079c-5.846,4.211-1.914,6.666-3.852,24.534
					c-0.958,8.839-0.838,19.747-0.838,28.617c4.308,5.355,7.299,11.455,0.838,18.062c-12.549,12.833-44.102,14.629-74.361,13.597
					c-17.228-0.587-26.792-3.566-31.808-7.328c-8.36-6.271-4.087-14.721-1.613-17.915c2.509-16.712,3.462-49.005,13.484-72.029
					C78.95,174.308,80.082,165.636,96.915,150.959z"/>
				<path style="fill:#303030;" d="M104.558,156.702l7.985-14.209c0,0,6.626-0.957,17.669,0c11.043,0.957,17.329,4.015,17.329,4.015
					v10.194H104.558z"/>
				<path style="fill:none;stroke:#00826F;stroke-width:1.5;stroke-linecap:round;stroke-linejoin:round;stroke-miterlimit:10;" d="
					M75.064,178.277c-6.256,18.092-9.062,28.471-11.384,49.137"/>
			</g>
			<g id="Arm_00000104688678325721619520000012657811262469454005_">
				<g id="Arm_00000182492954703272506170000000615393167077602945_">
					<g>
						<path style="fill:#FFCCCC;" d="M165.598,162.932c14.053,1.025,16.317,7.486,31.149,26.875
							c13.59,17.767,27.922,35.46,27.922,35.46c10.125,15.694-3.143,28.902-10.776,31.808c-7.634,2.906-14.182-2.436-21.947-11.734
							c-7.272-8.707-30.517-34.545-30.517-34.545L165.598,162.932z"/>
					</g>
					<g>
						<path style="fill:#FFCCCC;" d="M217.602,255.103c3.491-2.285,12.137-11.419,15.815-15.371
							c7.99-8.585,16.819-18.604,16.819-18.604c1.459-1.741,2.737-2.886,5.628-5.58c1.373-1.279,3.256-4.009,4.152-5.665
							c1.808-3.34,3.392-6.72,4.266-10.397c1.266-5.332,0.242-6.938-0.267-10.997c0,0,0.796-2.785,0.834-5.206
							c0.055-3.466-1.233-4.123-1.233-4.123s-3.302,3.214-6.532,6.531c-3.972,4.081-8.095,8.193-8.992,5.158
							c-0.975-3.297,2.216-8.974,0.023-12.114c-2.109-3.021-4.131-0.118-4.69,1.612c-1.097,3.394-4.223,10.411-5.397,14.805
							c-0.884,3.31-1.793,9.204-4.157,10.94c-3.137,2.303-4.736,3.421-7.95,5.616c-10.154,6.933-17.488,10.843-27.642,17.777
							L217.602,255.103z"/>
						<g>
							<g>
								<path style="fill:#303030;" d="M217.071,218.485c2.063,2.372,3.731,5.198,4.928,8.1c0.154,0.374,0.498,0.641,0.923,0.524
									c0.354-0.097,0.679-0.546,0.524-0.923c-1.302-3.157-3.069-6.18-5.314-8.762C217.497,216.695,216.44,217.76,217.071,218.485
									L217.071,218.485z"/>
							</g>
						</g>
					</g>
				</g>
				<g>
					<path style="fill:#303030;" d="M186.127,172.037c-7.928-10.657-10.797-13.334-20.8-16.938l-5.969,61.631l22.132,21.994
						c0,0,10.5-3.227,19.672-13.433c11-12.238,9.508-20.51,9.508-20.51S196.325,185.745,186.127,172.037z"/>
					
						<path style="fill:none;stroke:#00826F;stroke-width:1.5;stroke-linecap:round;stroke-linejoin:round;stroke-miterlimit:10;" d="
						M169.399,226.708c-6.294-6.051-11.525-10.604-11.525-10.604"/>
				</g>
			</g>
			<g>
				<path style="fill:none;stroke:#00826F;stroke-width:1.5;stroke-linecap:round;stroke-linejoin:round;stroke-miterlimit:10;" d="
					M114.627,174.9c-6.371,5.309-14.77,9.16-21.948,9.286c-5.049,18.659-9.364,33.743,8.992,46.605
					c25.794-7.764,29.238-25.58,31.503-42.636C121.042,186.128,114.627,174.9,114.627,174.9z"/>
				
					<polyline style="fill:none;stroke:#00826F;stroke-width:1.5;stroke-linecap:round;stroke-linejoin:round;stroke-miterlimit:10;" points="
					98.842,202.846 104.558,213.054 120.858,196.511 				"/>
			</g>
		</g>
		<g id="Chair_00000078729736972150802170000012555622144172979091_">
			
				<line style="fill:none;stroke:#303030;stroke-width:1.5;stroke-linecap:round;stroke-linejoin:round;stroke-miterlimit:10;" x1="108.421" y1="354.512" x2="108.421" y2="458.594"/>
			
				<path style="fill:#303030;stroke:#303030;stroke-width:1.5;stroke-linecap:round;stroke-linejoin:round;stroke-miterlimit:10;" d="
				M108.421,432.752c0,13.611-23.409,22.885-61.859,22.885v2.957h61.859h61.859v-2.957
				C131.831,455.637,108.421,446.363,108.421,432.752z"/>
			<g>
				<path style="fill:#FF95FB;" d="M167.867,360.848H48.975c-3.063,0-5.547-2.483-5.547-5.547v-9.278
					c0-3.063,2.483-5.547,5.547-5.547h118.892c3.063,0,5.547,2.483,5.547,5.547v9.278
					C173.414,358.365,170.93,360.848,167.867,360.848z"/>
				<path style="fill:#303030;" d="M169.564,368.547H47.278c-2.126,0-3.849-1.723-3.849-3.849l0,0c0-2.126,1.723-3.849,3.849-3.849
					h122.286c2.126,0,3.849,1.723,3.849,3.849l0,0C173.414,366.824,171.69,368.547,169.564,368.547z"/>
			</g>
		</g>
	</g>
</g>
<g id="Speech_Bubble">
	<g id="Speech_Bubble_00000052077119540646832140000009562508823205927848_">
		
			<path id="Speech_Bubble_00000170241682397044953280000015271404594898473652_" style="fill:#FFFFFF;stroke:#303030;stroke-width:1.5;stroke-linecap:round;stroke-linejoin:round;stroke-miterlimit:10;" d="
			M89.174,130.769c-3.19-0.821-8.495-4.006-9.174-8.01l-0.002,0.001c0.005-0.024,0.008-0.044,0.013-0.068
			c5.239-5.752,8.46-13.373,8.46-21.766c0-17.878-14.493-32.371-32.371-32.371c-17.878,0-32.371,14.493-32.371,32.371
			c0,17.878,14.493,32.371,32.371,32.371c5.332,0,10.35-1.313,14.786-3.597c3.981,2.461,8.142,3.518,12.842,3.421
			C89.178,133.008,90.796,131.186,89.174,130.769z"/>
		<path id="Check_00000000182458550459482000000001578397201658822810_" style="fill:#00826F;" d="M51.289,117.463
			c-1.175,0-2.307-0.451-3.161-1.265l-9.733-9.278c-1.832-1.746-1.901-4.645-0.155-6.477c1.743-1.832,4.644-1.903,6.477-0.155
			l6.266,5.974l15.768-18.079c1.664-1.906,4.557-2.105,6.465-0.441c1.906,1.663,2.104,4.557,0.441,6.464l-18.915,21.688
			c-0.822,0.942-1.993,1.507-3.242,1.565C51.429,117.462,51.359,117.463,51.289,117.463z"/>
	</g>
</g>
</svg>
